# This file uses centimeters as units for non-parametric coordinates.

mtllib church small window.mtl
g default
v 40.883454 2.235082 -0.239440
v 40.564685 2.235083 -0.243048
v 40.883455 6.577827 -0.239440
v 40.564685 6.176596 -0.243048
v 41.322126 2.235082 -0.234475
v 41.161433 2.235082 -0.236294
v 41.322126 5.916178 -0.234475
v 41.161433 6.252856 -0.236294
v 41.322126 3.609961 -0.234475
v 40.421416 2.235082 -0.244669
v 40.421416 3.609961 -0.244669
v 40.421416 5.881502 -0.244669
v 40.888930 2.235082 -0.723267
v 40.570161 2.235083 -0.726875
v 40.888931 6.577827 -0.723267
v 40.570161 6.176596 -0.726875
v 41.327602 2.235082 -0.718303
v 41.166908 2.235082 -0.720121
v 41.327602 5.916178 -0.718303
v 41.166909 6.252856 -0.720121
v 41.327602 3.609961 -0.718303
v 40.426892 2.235082 -0.728495
v 40.426892 3.609961 -0.728495
v 40.426892 5.881502 -0.728495
v 40.885837 2.564909 -0.723302
v 40.651445 2.564909 -0.725955
v 40.885838 6.248001 -0.723302
v 40.651445 5.907715 -0.725955
v 41.208395 2.564909 -0.719652
v 41.090237 2.564909 -0.720989
v 41.208395 5.686855 -0.719652
v 41.090237 5.972392 -0.720989
v 41.208395 3.730946 -0.719652
v 40.546098 2.564909 -0.727146
v 40.546098 3.730946 -0.727146
v 40.546098 5.657445 -0.727146
v 40.877487 2.564909 0.014480
v 40.643095 2.564909 0.011828
v 40.877488 6.248001 0.014480
v 40.643095 5.907715 0.011828
v 41.200046 2.564909 0.018131
v 41.081887 2.564909 0.016794
v 41.200046 5.686855 0.018131
v 41.081887 5.972392 0.016794
v 41.200046 3.730946 0.018131
v 40.537748 2.564909 0.010635
v 40.537748 3.730946 0.010635
v 40.537748 5.657445 0.010635
v 40.880066 2.335311 0.014509
v 40.575337 2.335311 0.011061
v 40.880066 6.477598 0.014509
v 40.575337 6.094887 0.011061
v 41.299415 2.335311 0.019255
v 41.145800 2.335311 0.017517
v 41.299415 5.846491 0.019255
v 41.145800 6.167627 0.017517
v 41.299415 3.646727 0.019255
v 40.438378 2.335311 0.009511
v 40.438378 3.646727 0.009511
v 40.438378 5.813415 0.009511
v 40.876273 2.335311 0.349664
v 40.571544 2.335311 0.346215
v 40.876273 6.477598 0.349664
v 40.571544 6.094887 0.346215
v 41.295622 2.335311 0.354410
v 41.142007 2.335311 0.352671
v 41.295622 5.846491 0.354410
v 41.142007 6.167627 0.352671
v 41.295622 3.646727 0.354410
v 40.434585 2.335311 0.344665
v 40.434585 3.646727 0.344665
v 40.434585 5.813415 0.344665
v 40.879629 2.183902 0.349702
v 40.483331 2.183903 0.345217
v 40.879629 6.629008 0.349702
v 40.483331 6.218317 0.345217
v 41.424991 2.183902 0.355874
v 41.225215 2.183902 0.353613
v 41.424991 5.951763 0.355874
v 41.225216 6.296375 0.353613
v 41.424991 3.591187 0.355874
v 40.305216 2.183902 0.343201
v 40.305216 3.591187 0.343201
v 40.305216 5.916269 0.343201
v 40.885232 2.183902 -0.145327
v 40.488933 2.183903 -0.149812
v 40.885232 6.629008 -0.145327
v 40.488933 6.218317 -0.149812
v 41.430594 2.183902 -0.139155
v 41.230818 2.183902 -0.141416
v 41.430594 5.951763 -0.139155
v 41.230818 6.296375 -0.141416
v 41.430594 3.591187 -0.139155
v 40.310818 2.183902 -0.151826
v 40.310818 3.591187 -0.151826
v 40.310818 5.916269 -0.151826
v 40.880729 2.482526 -0.239471
v 40.636313 2.482526 -0.242237
v 40.636313 5.974875 -0.242237
v 40.880729 6.330382 -0.239471
v 41.217081 2.482526 -0.235664
v 41.093869 2.482526 -0.237059
v 41.093869 6.042444 -0.237059
v 41.217081 5.744134 -0.235664
v 41.217081 3.700727 -0.235664
v 40.526461 2.482526 -0.243480
v 40.526461 3.700727 -0.243480
v 40.526461 5.713409 -0.243480
vt 0.342270 0.033934
vt 0.395769 0.033934
vt 0.411447 0.000000
vt 0.341674 0.000000
vt 0.395769 0.512869
vt 0.342270 0.561622
vt 0.341674 0.595556
vt 0.411447 0.540532
vt 0.268649 0.033934
vt 0.295618 0.033934
vt 0.280829 0.000000
vt 0.245656 0.000000
vt 0.295618 0.522135
vt 0.268649 0.481225
vt 0.245656 0.504819
vt 0.280829 0.550991
vt 0.268649 0.200996
vt 0.245656 0.188548
vt 0.419814 0.033934
vt 0.419814 0.200996
vt 0.442807 0.188548
vt 0.442807 0.000000
vt 0.419814 0.477012
vt 0.442807 0.500063
vt 0.440690 0.627367
vt 0.494492 0.627586
vt 0.494701 0.576420
vt 0.440898 0.576200
vt 0.896965 0.443753
vt 0.898658 0.521430
vt 0.949813 0.520314
vt 0.948119 0.442637
vt 0.366651 0.627065
vt 0.393773 0.627176
vt 0.393981 0.576009
vt 0.366859 0.575898
vt 0.833805 0.070150
vt 0.835368 0.141669
vt 0.886522 0.140551
vt 0.884960 0.069032
vt 0.840693 0.385487
vt 0.843868 0.530842
vt 0.895022 0.529725
vt 0.891847 0.384370
vt 0.887294 0.001118
vt 0.890471 0.146473
vt 0.941625 0.145355
vt 0.938449 0.000000
vt 0.895719 0.386625
vt 0.946874 0.385508
vt 0.832297 0.001117
vt 0.883452 0.000000
vt 0.518673 0.627685
vt 0.518881 0.576519
vt 0.544780 0.000000
vt 0.475007 0.000000
vt 0.492798 0.045232
vt 0.544103 0.045232
vt 0.475007 0.540532
vt 0.544780 0.595556
vt 0.544103 0.550324
vt 0.492798 0.503658
vt 0.640798 0.000000
vt 0.605625 0.000000
vt 0.588843 0.045232
vt 0.614706 0.045232
vt 0.605625 0.550990
vt 0.640798 0.504819
vt 0.614706 0.473370
vt 0.588843 0.512528
vt 0.640798 0.188548
vt 0.614706 0.205140
vt 0.443647 0.000000
vt 0.443647 0.188548
vt 0.469739 0.205140
vt 0.469739 0.045232
vt 0.443647 0.500064
vt 0.469739 0.469337
vt 0.244652 0.565913
vt 0.205091 0.565751
vt 0.204772 0.643774
vt 0.244333 0.643936
vt 0.350112 0.069909
vt 0.349326 0.033934
vt 0.271321 0.035637
vt 0.272107 0.071613
vt 0.299093 0.566135
vt 0.279150 0.566054
vt 0.278831 0.644077
vt 0.298774 0.644158
vt 0.044374 0.059565
vt 0.044763 0.098721
vt 0.145943 0.097714
vt 0.145554 0.058558
vt 0.047431 0.366937
vt 0.049022 0.526838
vt 0.150202 0.525831
vt 0.148611 0.365931
vt 0.357832 0.423318
vt 0.355139 0.300042
vt 0.277134 0.301746
vt 0.279827 0.425022
vt 0.350690 0.096368
vt 0.272685 0.098072
vt 0.043998 0.021770
vt 0.145178 0.020764
vt 0.187310 0.565679
vt 0.186992 0.643702
vt 0.733992 0.031487
vt 0.785296 0.031487
vt 0.800128 0.000000
vt 0.733427 0.000000
vt 0.785296 0.489913
vt 0.733992 0.536579
vt 0.733427 0.568066
vt 0.800128 0.515582
vt 0.663389 0.031487
vt 0.689252 0.031487
vt 0.675263 0.000000
vt 0.641639 0.000000
vt 0.689252 0.498783
vt 0.663389 0.459625
vt 0.641639 0.481517
vt 0.675263 0.525557
vt 0.663389 0.191395
vt 0.641639 0.179845
vt 0.808355 0.031487
vt 0.808355 0.191395
vt 0.830105 0.179845
vt 0.830105 0.000000
vt 0.808355 0.455592
vt 0.830105 0.476981
vt 0.074690 0.609421
vt 0.023257 0.609216
vt 0.023116 0.644660
vt 0.074549 0.644865
vt 0.509300 0.085693
vt 0.508415 0.045232
vt 0.472979 0.046007
vt 0.473865 0.086468
vt 0.145468 0.609702
vt 0.119540 0.609599
vt 0.119399 0.645043
vt 0.145325 0.645146
vt 0.557595 0.450394
vt 0.556854 0.416442
vt 0.521418 0.417216
vt 0.522160 0.451168
vt 0.551774 0.183878
vt 0.548746 0.045232
vt 0.513311 0.046007
vt 0.516339 0.184652
vt 0.517997 0.483163
vt 0.514964 0.344518
vt 0.479528 0.345293
vt 0.482562 0.483939
vt 0.509951 0.115451
vt 0.474516 0.116226
vt 0.558311 0.483165
vt 0.522876 0.483939
vt 0.000142 0.609124
vt 0.000000 0.644568
vt 0.120105 0.020764
vt 0.186806 0.020764
vt 0.206114 0.000000
vt 0.119371 0.000000
vt 0.186806 0.536346
vt 0.120105 0.588830
vt 0.119371 0.609594
vt 0.206114 0.553272
vt 0.028317 0.020764
vt 0.061941 0.020764
vt 0.043728 0.000000
vt 0.000000 0.000000
vt 0.061941 0.546321
vt 0.028317 0.502281
vt 0.000000 0.516718
vt 0.043728 0.563977
vt 0.028317 0.200609
vt 0.000000 0.192993
vt 0.216784 0.020764
vt 0.216784 0.200609
vt 0.245101 0.192993
vt 0.245101 0.000000
vt 0.216784 0.497745
vt 0.245101 0.511850
vt 0.675021 0.620298
vt 0.741908 0.620571
vt 0.742122 0.568220
vt 0.675235 0.567947
vt 0.892940 0.956581
vt 0.893888 1.000000
vt 0.946227 0.998857
vt 0.945279 0.955438
vt 0.582974 0.619921
vt 0.616693 0.620059
vt 0.616907 0.567708
vt 0.583189 0.567570
vt 0.690071 0.067796
vt 0.690867 0.104229
vt 0.743206 0.103086
vt 0.742410 0.066653
vt 0.696318 0.353795
vt 0.699567 0.502576
vt 0.751906 0.501433
vt 0.748657 0.352652
vt 0.883628 0.530053
vt 0.886876 0.678835
vt 0.939215 0.677692
vt 0.935967 0.528911
vt 0.892243 0.924648
vt 0.944582 0.923505
vt 0.689303 0.032629
vt 0.741642 0.031486
vt 0.771970 0.620694
vt 0.772184 0.568343
vn -0.011317 -0.000002 0.999936
vn -0.011317 -0.000002 0.999936
vn -0.011317 -0.000002 0.999936
vn -0.011317 -0.000002 0.999936
vn -0.011317 0.000001 0.999936
vn -0.011317 0.000001 0.999936
vn -0.011317 0.000001 0.999936
vn -0.011317 0.000001 0.999936
vn -0.011317 0.000000 0.999936
vn -0.011317 0.000000 0.999936
vn -0.011317 0.000000 0.999936
vn -0.011317 0.000000 0.999936
vn -0.011317 0.000000 0.999936
vn -0.011317 0.000000 0.999936
vn -0.011317 0.000000 0.999936
vn -0.011317 0.000000 0.999936
vn -0.011317 0.000000 0.999936
vn -0.011317 0.000000 0.999936
vn -0.011317 0.000000 0.999936
vn -0.011317 0.000000 0.999936
vn -0.011317 0.000000 0.999936
vn -0.011317 0.000000 0.999936
vn -0.011317 0.000000 0.999936
vn -0.011317 0.000000 0.999936
vn -0.011317 0.000000 0.999936
vn -0.011317 0.000000 0.999936
vn -0.011317 0.000000 0.999936
vn -0.011317 0.000000 0.999936
vn -0.011317 0.000000 0.999936
vn -0.011317 0.000000 0.999936
vn -0.011317 0.000000 0.999936
vn -0.011317 0.000000 0.999936
vn -0.011317 0.000001 0.999936
vn -0.011317 0.000001 0.999936
vn -0.011317 0.000001 0.999936
vn -0.011317 0.000001 0.999936
vn -0.011317 0.000000 0.999936
vn -0.011317 0.000000 0.999936
vn -0.011317 0.000000 0.999936
vn -0.011317 0.000000 0.999936
vn -0.011317 0.000000 0.999936
vn -0.011317 0.000000 0.999936
vn -0.011317 0.000000 0.999936
vn -0.011317 0.000000 0.999936
vn -0.011317 0.000000 0.999936
vn -0.011317 0.000000 0.999936
vn -0.011317 0.000000 0.999936
vn -0.011317 0.000000 0.999936
vn -0.000002 -1.000000 -0.000000
vn -0.000002 -1.000000 -0.000000
vn -0.000002 -1.000000 -0.000000
vn -0.000002 -1.000000 -0.000000
vn -0.782904 0.622080 -0.008860
vn -0.782904 0.622080 -0.008860
vn -0.782904 0.622080 -0.008860
vn -0.782904 0.622080 -0.008860
vn 0.000000 -1.000000 0.000000
vn 0.000000 -1.000000 0.000000
vn 0.000000 -1.000000 0.000000
vn 0.000000 -1.000000 0.000000
vn 0.902406 0.430765 0.010213
vn 0.902406 0.430765 0.010213
vn 0.902406 0.430765 0.010213
vn 0.902406 0.430765 0.010213
vn 0.999936 0.000000 0.011317
vn 0.999936 0.000000 0.011317
vn 0.999936 0.000000 0.011317
vn 0.999936 0.000000 0.011317
vn 0.999936 0.000000 0.011317
vn 0.999936 0.000000 0.011317
vn 0.999936 0.000000 0.011317
vn 0.999936 0.000000 0.011317
vn -0.999936 0.000000 -0.011317
vn -0.999936 0.000000 -0.011317
vn -0.999936 0.000000 -0.011317
vn -0.999936 0.000000 -0.011317
vn -0.999936 0.000000 -0.011317
vn -0.999936 0.000000 -0.011317
vn -0.999936 0.000000 -0.011317
vn -0.999936 0.000000 -0.011317
vn 0.759844 0.650049 0.008600
vn 0.759844 0.650049 0.008600
vn 0.759844 0.650049 0.008600
vn 0.759844 0.650049 0.008600
vn 0.000000 -1.000000 0.000000
vn 0.000000 -1.000000 0.000000
vn 0.000000 -1.000000 0.000000
vn 0.000000 -1.000000 0.000000
vn 0.000002 -1.000000 0.000000
vn 0.000002 -1.000000 0.000000
vn 0.000002 -1.000000 0.000000
vn 0.000002 -1.000000 0.000000
vn -0.899514 0.436773 -0.010180
vn -0.899514 0.436773 -0.010180
vn -0.899514 0.436773 -0.010180
vn -0.899514 0.436773 -0.010180
vn 0.011317 0.000000 -0.999936
vn 0.011317 0.000000 -0.999936
vn 0.011317 0.000000 -0.999936
vn 0.011317 0.000000 -0.999936
vn 0.011317 0.000000 -0.999936
vn 0.011317 0.000000 -0.999936
vn 0.011317 0.000000 -0.999936
vn 0.011317 0.000000 -0.999936
vn 0.011317 0.000000 -0.999936
vn 0.011317 0.000000 -0.999936
vn 0.011317 0.000000 -0.999936
vn 0.011317 0.000000 -0.999936
vn 0.011317 0.000000 -0.999936
vn 0.011317 0.000000 -0.999936
vn 0.011317 0.000000 -0.999936
vn 0.011317 0.000000 -0.999936
vn 0.011317 0.000000 -0.999936
vn 0.011317 0.000000 -0.999936
vn 0.011317 0.000000 -0.999936
vn 0.011317 0.000000 -0.999936
vn 0.011317 0.000000 -0.999936
vn 0.011317 0.000000 -0.999936
vn 0.011317 0.000000 -0.999936
vn 0.011317 0.000000 -0.999936
vn 0.011317 0.000000 -0.999936
vn 0.011317 0.000000 -0.999936
vn 0.011317 0.000000 -0.999936
vn 0.011317 0.000000 -0.999936
vn 0.011317 0.000000 -0.999936
vn 0.011317 0.000000 -0.999936
vn 0.011317 0.000000 -0.999936
vn 0.011317 0.000000 -0.999936
vn 0.011317 0.000000 -0.999936
vn 0.011317 0.000000 -0.999936
vn 0.011317 0.000000 -0.999936
vn 0.011317 0.000000 -0.999936
vn 0.011317 0.000002 -0.999936
vn 0.011317 0.000002 -0.999936
vn 0.011317 0.000002 -0.999936
vn 0.011317 0.000002 -0.999936
vn 0.011304 0.000004 -0.999936
vn 0.011304 0.000004 -0.999936
vn 0.011304 0.000004 -0.999936
vn 0.011304 0.000004 -0.999936
vn 0.011310 -0.000003 -0.999936
vn 0.011310 -0.000003 -0.999936
vn 0.011310 -0.000003 -0.999936
vn 0.011310 -0.000003 -0.999936
vn 0.000002 1.000000 0.000000
vn 0.000002 1.000000 0.000000
vn 0.000002 1.000000 0.000000
vn 0.000002 1.000000 0.000000
vn 0.823467 -0.567288 0.009320
vn 0.823467 -0.567288 0.009320
vn 0.823467 -0.567288 0.009320
vn 0.823467 -0.567288 0.009320
vn 0.000000 1.000000 0.000000
vn 0.000000 1.000000 0.000000
vn 0.000000 1.000000 0.000000
vn 0.000000 1.000000 0.000000
vn -0.923943 -0.382388 -0.010457
vn -0.923943 -0.382388 -0.010457
vn -0.923943 -0.382388 -0.010457
vn -0.923943 -0.382388 -0.010457
vn -0.999936 0.000000 -0.011317
vn -0.999936 0.000000 -0.011317
vn -0.999936 0.000000 -0.011317
vn -0.999936 0.000000 -0.011317
vn -0.999936 0.000000 -0.011317
vn -0.999936 0.000000 -0.011317
vn -0.999936 0.000000 -0.011317
vn -0.999936 0.000000 -0.011317
vn 0.999936 0.000000 0.011317
vn 0.999936 0.000000 0.011317
vn 0.999936 0.000000 0.011317
vn 0.999936 0.000000 0.011317
vn 0.999936 0.000000 0.011317
vn 0.999936 0.000000 0.011317
vn 0.999936 0.000000 0.011317
vn 0.999936 0.000000 0.011317
vn -0.803147 -0.595712 -0.009090
vn -0.803147 -0.595712 -0.009090
vn -0.803147 -0.595712 -0.009090
vn -0.803147 -0.595712 -0.009090
vn 0.000000 1.000000 0.000000
vn 0.000000 1.000000 0.000000
vn 0.000000 1.000000 0.000000
vn 0.000000 1.000000 0.000000
vn -0.000003 1.000000 -0.000000
vn -0.000003 1.000000 -0.000000
vn -0.000003 1.000000 -0.000000
vn -0.000003 1.000000 -0.000000
vn 0.921607 -0.387985 0.010430
vn 0.921607 -0.387985 0.010430
vn 0.921607 -0.387985 0.010430
vn 0.921607 -0.387985 0.010430
vn -0.011317 -0.000002 0.999936
vn -0.011317 -0.000002 0.999936
vn -0.011317 -0.000002 0.999936
vn -0.011317 -0.000002 0.999936
vn -0.011317 0.000000 0.999936
vn -0.011317 0.000000 0.999936
vn -0.011317 0.000000 0.999936
vn -0.011317 0.000000 0.999936
vn -0.011317 -0.000002 0.999936
vn -0.011317 -0.000002 0.999936
vn -0.011317 -0.000002 0.999936
vn -0.011317 -0.000002 0.999936
vn -0.011317 0.000002 0.999936
vn -0.011317 0.000002 0.999936
vn -0.011317 0.000002 0.999936
vn -0.011317 0.000002 0.999936
vn -0.011317 0.000000 0.999936
vn -0.011317 0.000000 0.999936
vn -0.011317 0.000000 0.999936
vn -0.011317 0.000000 0.999936
vn -0.011317 0.000000 0.999936
vn -0.011317 0.000000 0.999936
vn -0.011317 0.000000 0.999936
vn -0.011317 0.000000 0.999936
vn -0.011317 0.000000 0.999936
vn -0.011317 0.000000 0.999936
vn -0.011317 0.000000 0.999936
vn -0.011317 0.000000 0.999936
vn -0.011317 0.000000 0.999936
vn -0.011317 0.000000 0.999936
vn -0.011317 0.000000 0.999936
vn -0.011317 0.000000 0.999936
vn -0.011317 0.000000 0.999936
vn -0.011317 0.000000 0.999936
vn -0.011317 0.000000 0.999936
vn -0.011317 0.000000 0.999936
vn -0.011317 0.000000 0.999936
vn -0.011317 0.000000 0.999936
vn -0.011317 0.000000 0.999936
vn -0.011317 0.000000 0.999936
vn -0.011317 0.000001 0.999936
vn -0.011317 0.000001 0.999936
vn -0.011317 0.000001 0.999936
vn -0.011317 0.000001 0.999936
vn -0.011317 -0.000001 0.999936
vn -0.011317 -0.000001 0.999936
vn -0.011317 -0.000001 0.999936
vn -0.011317 -0.000001 0.999936
vn 0.000000 1.000000 0.000000
vn 0.000000 1.000000 0.000000
vn 0.000000 1.000000 0.000000
vn 0.000000 1.000000 0.000000
vn 0.782234 -0.622922 0.008853
vn 0.782234 -0.622922 0.008853
vn 0.782234 -0.622922 0.008853
vn 0.782234 -0.622922 0.008853
vn 0.000000 1.000000 0.000000
vn 0.000000 1.000000 0.000000
vn 0.000000 1.000000 0.000000
vn 0.000000 1.000000 0.000000
vn -0.902035 -0.431542 -0.010209
vn -0.902035 -0.431542 -0.010209
vn -0.902035 -0.431542 -0.010209
vn -0.902035 -0.431542 -0.010209
vn -0.999936 0.000000 -0.011317
vn -0.999936 0.000000 -0.011317
vn -0.999936 0.000000 -0.011317
vn -0.999936 0.000000 -0.011317
vn -0.999936 0.000000 -0.011317
vn -0.999936 0.000000 -0.011317
vn -0.999936 0.000000 -0.011317
vn -0.999936 0.000000 -0.011317
vn 0.999936 0.000000 0.011317
vn 0.999936 0.000000 0.011317
vn 0.999936 0.000000 0.011317
vn 0.999936 0.000000 0.011317
vn 0.999936 0.000000 0.011317
vn 0.999936 0.000000 0.011317
vn 0.999936 0.000000 0.011317
vn 0.999936 0.000000 0.011317
vn -0.759134 -0.650878 -0.008591
vn -0.759134 -0.650878 -0.008591
vn -0.759134 -0.650878 -0.008591
vn -0.759134 -0.650878 -0.008591
vn 0.000000 1.000000 0.000000
vn 0.000000 1.000000 0.000000
vn 0.000000 1.000000 0.000000
vn 0.000000 1.000000 0.000000
vn -0.000002 1.000000 -0.000000
vn -0.000002 1.000000 -0.000000
vn -0.000002 1.000000 -0.000000
vn -0.000002 1.000000 -0.000000
vn 0.899134 -0.437556 0.010176
vn 0.899134 -0.437556 0.010176
vn 0.899134 -0.437556 0.010176
vn 0.899134 -0.437556 0.010176
vn -0.011317 0.000000 0.999936
vn -0.011317 0.000000 0.999936
vn -0.011317 0.000000 0.999936
vn -0.011317 0.000000 0.999936
vn -0.011317 -0.000002 0.999936
vn -0.011317 -0.000002 0.999936
vn -0.011317 -0.000002 0.999936
vn -0.011317 -0.000002 0.999936
vn -0.011317 0.000000 0.999936
vn -0.011317 0.000000 0.999936
vn -0.011317 0.000000 0.999936
vn -0.011317 0.000000 0.999936
vn -0.011317 0.000000 0.999936
vn -0.011317 0.000000 0.999936
vn -0.011317 0.000000 0.999936
vn -0.011317 0.000000 0.999936
vn -0.011317 0.000000 0.999936
vn -0.011317 0.000000 0.999936
vn -0.011317 0.000000 0.999936
vn -0.011317 0.000000 0.999936
vn -0.011317 0.000000 0.999936
vn -0.011317 0.000000 0.999936
vn -0.011317 0.000000 0.999936
vn -0.011317 0.000000 0.999936
vn -0.011317 0.000000 0.999936
vn -0.011317 0.000000 0.999936
vn -0.011317 0.000000 0.999936
vn -0.011317 0.000000 0.999936
vn -0.011317 0.000000 0.999936
vn -0.011317 0.000000 0.999936
vn -0.011317 0.000000 0.999936
vn -0.011317 0.000000 0.999936
vn -0.011317 0.000000 0.999936
vn -0.011317 0.000000 0.999936
vn -0.011317 0.000000 0.999936
vn -0.011317 0.000000 0.999936
vn -0.011317 0.000000 0.999936
vn -0.011317 0.000000 0.999936
vn -0.011317 0.000000 0.999936
vn -0.011317 0.000000 0.999936
vn -0.011317 -0.000003 0.999936
vn -0.011317 -0.000003 0.999936
vn -0.011317 -0.000003 0.999936
vn -0.011317 -0.000003 0.999936
vn -0.011317 0.000000 0.999936
vn -0.011317 0.000000 0.999936
vn -0.011317 0.000000 0.999936
vn -0.011317 0.000000 0.999936
vn -0.000002 -1.000000 -0.000000
vn -0.000002 -1.000000 -0.000000
vn -0.000002 -1.000000 -0.000000
vn -0.000002 -1.000000 -0.000000
vn -0.719534 0.694410 -0.008143
vn -0.719534 0.694410 -0.008143
vn -0.719534 0.694410 -0.008143
vn -0.719534 0.694410 -0.008143
vn 0.000000 -1.000000 0.000000
vn 0.000000 -1.000000 0.000000
vn 0.000000 -1.000000 0.000000
vn 0.000000 -1.000000 0.000000
vn 0.865071 0.501554 0.009790
vn 0.865071 0.501554 0.009790
vn 0.865071 0.501554 0.009790
vn 0.865071 0.501554 0.009790
vn 0.999936 0.000000 0.011317
vn 0.999936 0.000000 0.011317
vn 0.999936 0.000000 0.011317
vn 0.999936 0.000000 0.011317
vn 0.999936 0.000000 0.011317
vn 0.999936 0.000000 0.011317
vn 0.999936 0.000000 0.011317
vn 0.999936 0.000000 0.011317
vn -0.999936 0.000000 -0.011317
vn -0.999936 0.000000 -0.011317
vn -0.999936 0.000000 -0.011317
vn -0.999936 0.000000 -0.011317
vn -0.999936 0.000000 -0.011317
vn -0.999936 0.000000 -0.011317
vn -0.999936 0.000000 -0.011317
vn -0.999936 0.000000 -0.011317
vn 0.693407 0.720504 0.007848
vn 0.693407 0.720504 0.007848
vn 0.693407 0.720504 0.007848
vn 0.693407 0.720504 0.007848
vn 0.000000 -1.000000 0.000000
vn 0.000000 -1.000000 0.000000
vn 0.000000 -1.000000 0.000000
vn 0.000000 -1.000000 0.000000
vn 0.000002 -1.000000 0.000000
vn 0.000002 -1.000000 0.000000
vn 0.000002 -1.000000 0.000000
vn 0.000002 -1.000000 0.000000
vn -0.861317 0.507975 -0.009748
vn -0.861317 0.507975 -0.009748
vn -0.861317 0.507975 -0.009748
vn -0.861317 0.507975 -0.009748
s off
usemtl LACHURCH:lambert10SG
f 97/1/1 98/2/2 2/3/3 1/4/4
f 99/5/5 100/6/6 3/7/7 4/8/8
f 101/9/9 102/10/10 6/11/11 5/12/12
f 103/13/13 104/14/14 7/15/15 8/16/16
f 105/17/17 101/9/18 5/12/19 9/18/20
f 104/14/21 105/17/22 9/18/23 7/15/24
f 106/19/25 107/20/26 11/21/27 10/22/28
f 107/20/29 108/23/30 12/24/31 11/21/32
f 100/6/33 103/13/34 8/16/35 3/7/36
f 102/10/37 97/1/38 1/4/39 6/11/40
f 98/2/41 106/19/42 10/22/43 2/3/44
f 108/23/45 99/5/46 4/8/47 12/24/48
f 1/25/49 2/26/50 14/27/51 13/28/52
f 4/29/53 3/30/54 15/31/55 16/32/56
f 5/33/57 6/34/58 18/35/59 17/36/60
f 8/37/61 7/38/62 19/39/63 20/40/64
f 9/41/65 5/42/66 17/43/67 21/44/68
f 7/38/69 9/41/70 21/44/71 19/39/72
f 10/45/73 11/46/74 23/47/75 22/48/76
f 11/46/77 12/49/78 24/50/79 23/47/80
f 3/51/81 8/37/82 20/40/83 15/52/84
f 6/34/85 1/25/86 13/28/87 18/35/88
f 2/26/89 10/53/90 22/54/91 14/27/92
f 12/49/93 4/29/94 16/32/95 24/50/96
f 13/55/97 14/56/98 26/57/99 25/58/100
f 16/59/101 15/60/102 27/61/103 28/62/104
f 17/63/105 18/64/106 30/65/107 29/66/108
f 20/67/109 19/68/110 31/69/111 32/70/112
f 21/71/113 17/63/114 29/66/115 33/72/116
f 19/68/117 21/71/118 33/72/119 31/69/120
f 22/73/121 23/74/122 35/75/123 34/76/124
f 23/74/125 24/77/126 36/78/127 35/75/128
f 15/60/129 20/67/130 32/70/131 27/61/132
f 18/64/133 13/55/134 25/58/135 30/65/136
f 14/56/137 22/73/138 34/76/139 26/57/140
f 24/77/141 16/59/142 28/62/143 36/78/144
f 25/79/145 26/80/146 38/81/147 37/82/148
f 28/83/149 27/84/150 39/85/151 40/86/152
f 29/87/153 30/88/154 42/89/155 41/90/156
f 32/91/157 31/92/158 43/93/159 44/94/160
f 33/95/161 29/96/162 41/97/163 45/98/164
f 31/92/165 33/95/166 45/98/167 43/93/168
f 34/99/169 35/100/170 47/101/171 46/102/172
f 35/100/173 36/103/174 48/104/175 47/101/176
f 27/105/177 32/91/178 44/94/179 39/106/180
f 30/88/181 25/79/182 37/82/183 42/89/184
f 26/80/185 34/107/186 46/108/187 38/81/188
f 36/103/189 28/83/190 40/86/191 48/104/192
f 37/109/193 38/110/194 50/111/195 49/112/196
f 40/113/197 39/114/198 51/115/199 52/116/200
f 41/117/201 42/118/202 54/119/203 53/120/204
f 44/121/205 43/122/206 55/123/207 56/124/208
f 45/125/209 41/117/210 53/120/211 57/126/212
f 43/122/213 45/125/214 57/126/215 55/123/216
f 46/127/217 47/128/218 59/129/219 58/130/220
f 47/128/221 48/131/222 60/132/223 59/129/224
f 39/114/225 44/121/226 56/124/227 51/115/228
f 42/118/229 37/109/230 49/112/231 54/119/232
f 38/110/233 46/127/234 58/130/235 50/111/236
f 48/131/237 40/113/238 52/116/239 60/132/240
f 49/133/241 50/134/242 62/135/243 61/136/244
f 52/137/245 51/138/246 63/139/247 64/140/248
f 53/141/249 54/142/250 66/143/251 65/144/252
f 56/145/253 55/146/254 67/147/255 68/148/256
f 57/149/257 53/150/258 65/151/259 69/152/260
f 55/146/261 57/149/262 69/152/263 67/147/264
f 58/153/265 59/154/266 71/155/267 70/156/268
f 59/154/269 60/157/270 72/158/271 71/155/272
f 51/159/273 56/145/274 68/148/275 63/160/276
f 54/142/277 49/133/278 61/136/279 66/143/280
f 50/134/281 58/161/282 70/162/283 62/135/284
f 60/157/285 52/137/286 64/140/287 72/158/288
f 61/163/289 62/164/290 74/165/291 73/166/292
f 64/167/293 63/168/294 75/169/295 76/170/296
f 65/171/297 66/172/298 78/173/299 77/174/300
f 68/175/301 67/176/302 79/177/303 80/178/304
f 69/179/305 65/171/306 77/174/307 81/180/308
f 67/176/309 69/179/310 81/180/311 79/177/312
f 70/181/313 71/182/314 83/183/315 82/184/316
f 71/182/317 72/185/318 84/186/319 83/183/320
f 63/168/321 68/175/322 80/178/323 75/169/324
f 66/172/325 61/163/326 73/166/327 78/173/328
f 62/164/329 70/181/330 82/184/331 74/165/332
f 72/185/333 64/167/334 76/170/335 84/186/336
f 73/187/337 74/188/338 86/189/339 85/190/340
f 76/191/341 75/192/342 87/193/343 88/194/344
f 77/195/345 78/196/346 90/197/347 89/198/348
f 80/199/349 79/200/350 91/201/351 92/202/352
f 81/203/353 77/204/354 89/205/355 93/206/356
f 79/200/357 81/203/358 93/206/359 91/201/360
f 82/207/361 83/208/362 95/209/363 94/210/364
f 83/208/365 84/211/366 96/212/367 95/209/368
f 75/213/369 80/199/370 92/202/371 87/214/372
f 78/196/373 73/187/374 85/190/375 90/197/376
f 74/188/377 82/215/378 94/216/379 86/189/380
f 84/211/381 76/191/382 88/194/383 96/212/384
