# This file uses centimeters as units for non-parametric coordinates.

mtllib curved track.mtl
g default
v -67.506096 0.308259 -4.217853
v -67.506096 0.308259 -4.357243
v -91.475334 0.308259 -0.715219
v -91.475334 0.308259 -0.854609
v -91.475334 -0.040869 -0.715219
v -91.475334 -0.040869 -0.854609
v -67.506096 -0.040869 -4.217853
v -67.506096 -0.040869 -4.357243
v -89.210846 0.308259 -0.177164
v -89.210846 0.308259 -0.316556
v -89.210846 -0.040869 -0.316556
v -89.210846 -0.040869 -0.177164
v -88.255150 0.308259 -0.002429
v -88.255150 0.308259 -0.141819
v -88.255150 -0.040869 -0.141819
v -88.255150 -0.040869 -0.002429
v -83.892197 0.308259 0.282762
v -83.892197 0.308259 0.143371
v -83.892197 -0.040869 0.143371
v -83.892197 -0.040869 0.282762
v -79.880196 0.308259 -0.010691
v -79.880196 0.308259 -0.150081
v -79.880196 -0.040869 -0.150081
v -79.880196 -0.040869 -0.010691
v -78.067245 0.308259 -0.417057
v -78.067245 0.308259 -0.556447
v -78.067245 -0.040869 -0.556447
v -78.067245 -0.040869 -0.417057
v -75.970551 0.308259 -0.953415
v -75.970551 0.308259 -1.092804
v -75.970551 -0.040869 -1.092804
v -75.970551 -0.040869 -0.953415
v -71.171181 0.308259 -2.684355
v -71.171181 0.308259 -2.789508
v -71.171181 -0.040869 -2.789508
v -71.171181 -0.040869 -2.684355
v -87.996735 -0.040869 -0.136301
v -87.996735 0.308259 -0.136302
v -87.996735 0.308259 -0.037356
v -87.996735 -0.040869 -0.037356
v -87.679588 0.308259 0.052450
v -87.679588 0.308259 -0.086941
v -87.679588 -0.040869 -0.086941
v -87.679588 -0.040869 0.052450
v -77.933006 -0.040869 -0.528712
v -77.933006 0.308259 -0.528712
v -77.933006 0.308259 -0.441717
v -77.933006 -0.040869 -0.441717
v -77.761528 0.308259 -0.474130
v -77.761528 0.308259 -0.613519
v -77.761528 -0.040869 -0.613519
v -77.761528 -0.040869 -0.474130
v -71.530823 -0.040869 -2.640792
v -71.530823 0.308259 -2.640792
v -71.530823 0.308259 -2.501401
v -71.530823 -0.040869 -2.501401
v -70.758339 0.308259 -2.820044
v -70.758339 0.308259 -2.959433
v -70.758339 -0.040869 -2.959433
v -70.758339 -0.040869 -2.820044
v -84.125877 0.308259 0.228374
v -84.125877 0.308259 0.145116
v -84.125877 -0.040869 0.145116
v -84.125877 -0.040869 0.228374
v -84.287590 -0.040869 0.146322
v -84.287590 0.308260 0.146322
v -84.287590 0.308260 0.285712
v -84.287590 -0.040869 0.285712
vt 0.827581 0.898090
vt 0.844790 0.898090
vt 0.845108 0.990752
vt 0.827898 0.990752
vt 0.362926 0.539943
vt 0.346071 0.539943
vt 0.346071 0.523088
vt 0.362926 0.523088
vt 0.783192 0.983750
vt 0.766163 0.983750
vt 0.766477 0.892062
vt 0.783506 0.892062
vt 0.339357 0.566207
vt 0.322502 0.566207
vt 0.322502 0.549352
vt 0.339357 0.549352
vt 0.789515 0.892062
vt 0.806544 0.892062
vt 0.806544 0.983750
vt 0.789515 0.983750
vt 0.789468 0.892062
vt 0.806497 0.892062
vt 0.806497 0.983750
vt 0.789468 0.983750
vt 0.827051 0.858983
vt 0.844260 0.858983
vt 0.789515 0.853366
vt 0.806544 0.853366
vt 0.767002 0.853366
vt 0.784030 0.853366
vt 0.789468 0.853366
vt 0.806497 0.853366
vt 0.830869 0.835432
vt 0.848078 0.835432
vt 0.848533 0.848409
vt 0.836317 0.848409
vt 0.789515 0.830062
vt 0.806544 0.830062
vt 0.806544 0.842903
vt 0.789515 0.842903
vt 0.774861 0.842903
vt 0.762774 0.842903
vt 0.763223 0.830062
vt 0.780252 0.830062
vt 0.789468 0.830062
vt 0.806497 0.830062
vt 0.806497 0.842903
vt 0.789468 0.842903
vt 0.828071 0.516284
vt 0.845280 0.516284
vt 0.848751 0.680453
vt 0.831541 0.680453
vt 0.789515 0.514266
vt 0.806544 0.514266
vt 0.806544 0.676711
vt 0.789515 0.676711
vt 0.779587 0.676711
vt 0.762559 0.676711
vt 0.765993 0.514266
vt 0.783021 0.514266
vt 0.789468 0.514266
vt 0.806497 0.514266
vt 0.806497 0.676711
vt 0.789468 0.676711
vt 0.833522 0.442099
vt 0.850732 0.442099
vt 0.789515 0.440861
vt 0.806544 0.440861
vt 0.760598 0.440861
vt 0.777627 0.440861
vt 0.789468 0.440861
vt 0.806497 0.440861
vt 0.831730 0.429589
vt 0.848939 0.429589
vt 0.843472 0.436606
vt 0.832731 0.436606
vt 0.789515 0.428482
vt 0.806544 0.428482
vt 0.806544 0.435425
vt 0.789515 0.435425
vt 0.778410 0.435425
vt 0.767782 0.435425
vt 0.762372 0.428482
vt 0.779400 0.428482
vt 0.789468 0.428482
vt 0.806497 0.428482
vt 0.806497 0.435425
vt 0.789468 0.435425
vt 0.832125 0.159915
vt 0.845108 0.159915
vt 0.844763 0.174631
vt 0.827554 0.174631
vt 0.789515 0.161641
vt 0.806544 0.161641
vt 0.806544 0.176203
vt 0.789515 0.176203
vt 0.783533 0.176203
vt 0.766504 0.176203
vt 0.766163 0.161641
vt 0.779009 0.161641
vt 0.789468 0.161641
vt 0.806497 0.161641
vt 0.806497 0.176203
vt 0.789468 0.176203
vt 0.827898 0.143021
vt 0.845108 0.143021
vt 0.789515 0.144926
vt 0.806544 0.144926
vt 0.766163 0.144926
vt 0.783192 0.144926
vt 0.789468 0.144926
vt 0.806497 0.144926
vt 0.838256 0.690015
vt 0.848535 0.690015
vt 0.848386 0.696633
vt 0.831177 0.696633
vt 0.789515 0.686173
vt 0.806544 0.686173
vt 0.806544 0.692721
vt 0.789515 0.692721
vt 0.779948 0.692721
vt 0.762919 0.692721
vt 0.762772 0.686173
vt 0.772943 0.686173
vt 0.789468 0.686173
vt 0.806497 0.686173
vt 0.806497 0.692721
vt 0.789468 0.692721
vt 0.831351 0.356303
vt 0.848560 0.356303
vt 0.789515 0.355966
vt 0.806544 0.355966
vt 0.762747 0.355966
vt 0.779775 0.355966
vt 0.789468 0.355966
vt 0.806497 0.355966
vt 0.827898 0.009941
vt 0.845108 0.009941
vt 0.789515 0.013243
vt 0.806544 0.013243
vt 0.766163 0.013243
vt 0.783192 0.013243
vt 0.789468 0.013243
vt 0.806497 0.013243
vn 0.000000 1.000000 0.000000
vn 0.000000 1.000000 0.000000
vn 0.000000 1.000000 0.000000
vn 0.000000 1.000000 0.000000
vn -1.000000 0.000000 0.000000
vn -1.000000 0.000000 0.000000
vn -1.000000 0.000000 0.000000
vn -1.000000 0.000000 0.000000
vn 0.000000 -1.000000 0.000000
vn 0.000000 -1.000000 0.000000
vn 0.000000 -1.000000 0.000000
vn 0.000000 -1.000000 0.000000
vn 1.000000 0.000000 0.000000
vn 1.000000 0.000000 0.000000
vn 1.000000 0.000000 0.000000
vn 1.000000 0.000000 0.000000
vn 0.216119 0.000000 -0.976367
vn 0.216119 0.000000 -0.976367
vn 0.231169 0.000000 -0.972914
vn 0.231169 0.000000 -0.972914
vn -0.216119 0.000000 0.976367
vn -0.216119 0.000000 0.976367
vn -0.231170 0.000000 0.972913
vn -0.231170 0.000000 0.972913
vn 0.000001 1.000000 0.000000
vn 0.000001 1.000000 0.000000
vn 0.000000 1.000000 0.000000
vn 0.000000 1.000000 0.000000
vn 0.146856 -0.000001 -0.989158
vn 0.146856 -0.000001 -0.989158
vn 0.216119 0.000000 -0.976367
vn 0.216119 0.000000 -0.976367
vn 0.000000 -1.000000 0.000000
vn 0.000000 -1.000000 0.000000
vn 0.000000 -1.000000 0.000000
vn 0.000000 -1.000000 0.000000
vn -0.114396 0.000000 0.993435
vn -0.114396 0.000000 0.993435
vn -0.216119 0.000000 0.976367
vn -0.216119 0.000000 0.976367
vn -0.000000 1.000000 -0.000000
vn -0.000000 1.000000 -0.000000
vn 0.000000 1.000000 0.000000
vn 0.000000 1.000000 0.000000
vn 0.075976 0.000003 -0.997110
vn 0.075976 0.000003 -0.997110
vn 0.094917 -0.000001 -0.995485
vn 0.094917 -0.000001 -0.995485
vn 0.000000 -1.000000 0.000000
vn 0.000000 -1.000000 0.000000
vn 0.000000 -1.000000 0.000000
vn 0.000000 -1.000000 0.000000
vn -0.086772 0.000000 0.996228
vn -0.086772 0.000000 0.996228
vn -0.094919 0.000000 0.995485
vn -0.094919 0.000000 0.995485
vn 0.000000 1.000000 0.000000
vn 0.000000 1.000000 0.000000
vn 0.000000 1.000000 0.000000
vn 0.000000 1.000000 0.000000
vn -0.119284 0.000000 -0.992860
vn -0.119284 0.000000 -0.992860
vn -0.069361 0.000000 -0.997592
vn -0.069361 0.000000 -0.997592
vn 0.000000 -1.000000 0.000000
vn 0.000000 -1.000000 0.000000
vn 0.000000 -1.000000 0.000000
vn 0.000000 -1.000000 0.000000
vn 0.119284 0.000000 0.992860
vn 0.119284 0.000000 0.992860
vn 0.056219 0.000000 0.998418
vn 0.056219 0.000000 0.998418
vn -0.000000 1.000000 -0.000000
vn -0.000000 1.000000 -0.000000
vn 0.000000 1.000000 0.000000
vn 0.000000 1.000000 0.000000
vn -0.190875 0.000000 -0.981614
vn -0.190875 0.000000 -0.981614
vn -0.119284 0.000000 -0.992860
vn -0.119284 0.000000 -0.992860
vn 0.000000 -1.000000 0.000000
vn 0.000000 -1.000000 0.000000
vn 0.000001 -1.000000 0.000000
vn 0.000001 -1.000000 0.000000
vn 0.216126 0.000000 0.976365
vn 0.216126 0.000000 0.976365
vn 0.119284 0.000000 0.992860
vn 0.119284 0.000000 0.992860
vn -0.000000 1.000000 -0.000000
vn -0.000000 1.000000 -0.000000
vn -0.000001 1.000000 -0.000000
vn -0.000001 1.000000 -0.000000
vn -0.276256 0.000000 -0.961084
vn -0.276256 0.000000 -0.961084
vn -0.183512 0.000000 -0.983018
vn -0.183512 0.000000 -0.983018
vn -0.000001 -1.000000 0.000000
vn -0.000002 -1.000000 0.000000
vn 0.000000 -1.000000 0.000000
vn -0.000001 -1.000000 0.000000
vn 0.252308 0.000000 0.967647
vn 0.252308 0.000000 0.967647
vn 0.183515 0.000000 0.983017
vn 0.183515 0.000000 0.983017
vn 0.000000 1.000000 0.000000
vn 0.000000 1.000000 0.000000
vn -0.000001 1.000000 -0.000000
vn -0.000001 1.000000 -0.000000
vn -0.381322 0.000000 -0.924442
vn -0.381322 0.000000 -0.924442
vn -0.333311 0.000000 -0.942817
vn -0.333311 0.000000 -0.942817
vn -0.000001 -1.000000 0.000000
vn -0.000001 -1.000000 0.000000
vn 0.000000 -1.000000 0.000000
vn 0.000000 -1.000000 0.000000
vn 0.381323 0.000000 0.924442
vn 0.381323 0.000000 0.924442
vn 0.339269 0.000000 0.940690
vn 0.339269 0.000000 0.940690
vn 0.000000 1.000000 0.000000
vn 0.000000 1.000000 0.000000
vn 0.000000 1.000000 0.000000
vn 0.000000 1.000000 0.000000
vn -0.393280 0.000000 -0.919419
vn -0.393280 0.000000 -0.919419
vn -0.381322 0.000000 -0.924442
vn -0.381322 0.000000 -0.924442
vn 0.000000 -1.000000 0.000000
vn 0.000000 -1.000000 0.000000
vn 0.000002 -1.000000 0.000000
vn 0.000001 -1.000000 0.000000
vn 0.385983 0.000000 0.922506
vn 0.385983 0.000000 0.922506
vn 0.381323 0.000000 0.924442
vn 0.381323 0.000000 0.924442
vn 0.094917 -0.000001 -0.995485
vn 0.094917 -0.000001 -0.995485
vn 0.146856 -0.000001 -0.989158
vn 0.146856 -0.000001 -0.989158
vn 0.000000 1.000000 0.000000
vn 0.000000 1.000000 0.000000
vn 0.000001 1.000000 0.000000
vn 0.000001 1.000000 0.000000
vn -0.094919 0.000000 0.995485
vn -0.094919 0.000000 0.995485
vn -0.114396 0.000000 0.993435
vn -0.114396 0.000000 0.993435
vn 0.000000 -1.000000 0.000000
vn 0.000000 -1.000000 0.000000
vn 0.000000 -1.000000 0.000000
vn 0.000000 -1.000000 0.000000
vn 0.000003 1.000000 0.000000
vn 0.000003 1.000000 0.000000
vn 0.000000 1.000000 0.000000
vn -0.000000 1.000000 -0.000000
vn -0.007463 0.000000 -0.999972
vn -0.007463 0.000000 -0.999972
vn 0.065161 0.000003 -0.997875
vn 0.065161 0.000003 -0.997875
vn 0.000000 -1.000000 0.000000
vn 0.000000 -1.000000 0.000000
vn 0.000000 -1.000000 0.000000
vn 0.000000 -1.000000 0.000000
vn 0.007460 0.000000 0.999972
vn 0.007461 -0.000000 0.999972
vn -0.049444 0.000000 0.998777
vn -0.049444 0.000000 0.998777
vn -0.183512 0.000000 -0.983018
vn -0.183512 0.000000 -0.983018
vn -0.190875 0.000000 -0.981614
vn -0.190875 0.000000 -0.981614
vn -0.000001 1.000000 -0.000000
vn -0.000001 1.000000 -0.000000
vn -0.000000 1.000000 -0.000000
vn -0.000000 1.000000 -0.000000
vn 0.183515 0.000000 0.983017
vn 0.183515 0.000000 0.983017
vn 0.216126 0.000000 0.976365
vn 0.216126 0.000000 0.976365
vn 0.000001 -1.000000 0.000000
vn 0.000001 -1.000000 0.000000
vn -0.000002 -1.000000 0.000000
vn -0.000001 -1.000000 0.000000
vn -0.000001 1.000000 -0.000000
vn -0.000001 1.000000 -0.000000
vn -0.000000 1.000000 -0.000000
vn -0.000000 1.000000 -0.000000
vn -0.309403 0.000000 -0.950931
vn -0.309403 0.000000 -0.950931
vn -0.276256 0.000000 -0.961084
vn -0.276256 0.000000 -0.961084
vn -0.000001 -1.000000 0.000000
vn 0.000000 -1.000000 0.000000
vn -0.000001 -1.000000 0.000000
vn -0.000001 -1.000000 0.000000
vn 0.309403 0.000000 0.950931
vn 0.309403 0.000000 0.950931
vn 0.252308 0.000000 0.967647
vn 0.252308 0.000000 0.967647
vn -0.333311 0.000000 -0.942817
vn -0.333311 0.000000 -0.942817
vn -0.309403 0.000000 -0.950931
vn -0.309403 0.000000 -0.950931
vn -0.000001 1.000000 -0.000000
vn -0.000001 1.000000 -0.000000
vn -0.000001 1.000000 -0.000000
vn -0.000001 1.000000 -0.000000
vn 0.339269 0.000000 0.940690
vn 0.339269 0.000000 0.940690
vn 0.309403 0.000000 0.950931
vn 0.309403 0.000000 0.950931
vn -0.000001 -1.000000 0.000000
vn -0.000001 -1.000000 0.000000
vn -0.000001 -1.000000 0.000000
vn -0.000001 -1.000000 0.000000
vn 0.000000 1.000000 0.000000
vn 0.000000 1.000000 0.000000
vn 0.000000 1.000000 0.000000
vn 0.000000 1.000000 0.000000
vn -0.394872 0.000000 -0.918736
vn -0.394872 0.000000 -0.918736
vn -0.393280 0.000000 -0.919419
vn -0.393280 0.000000 -0.919419
vn 0.000001 -1.000000 0.000000
vn 0.000002 -1.000000 0.000000
vn 0.000002 -1.000000 0.000000
vn 0.000002 -1.000000 0.000000
vn 0.394871 0.000000 0.918737
vn 0.394871 0.000000 0.918737
vn 0.385983 0.000000 0.922506
vn 0.385983 0.000000 0.922506
vn 0.000000 1.000000 0.000000
vn 0.000000 1.000000 0.000000
vn 0.000003 1.000000 0.000000
vn 0.000003 1.000000 0.000000
vn -0.069361 0.000000 -0.997592
vn -0.069361 0.000000 -0.997592
vn -0.007463 0.000000 -0.999972
vn -0.007463 0.000000 -0.999972
vn 0.000000 -1.000000 0.000000
vn 0.000000 -1.000000 0.000000
vn 0.000000 -1.000000 0.000000
vn 0.000000 -1.000000 0.000000
vn 0.056219 0.000000 0.998418
vn 0.056219 0.000000 0.998418
vn 0.007461 -0.000000 0.999972
vn 0.007460 0.000000 0.999972
vn 0.065161 0.000003 -0.997875
vn 0.065161 0.000003 -0.997875
vn 0.075976 0.000003 -0.997110
vn 0.075976 0.000003 -0.997110
vn -0.000000 1.000000 -0.000000
vn 0.000000 1.000000 0.000000
vn -0.000000 1.000000 -0.000000
vn -0.000000 1.000000 -0.000000
vn -0.049444 0.000000 0.998777
vn -0.049444 0.000000 0.998777
vn -0.086772 0.000000 0.996228
vn -0.086772 0.000000 0.996228
vn 0.000000 -1.000000 0.000000
vn 0.000000 -1.000000 0.000000
vn 0.000000 -1.000000 0.000000
vn 0.000000 -1.000000 0.000000
s off
f 9/1/1 10/2/2 4/3/3 3/4/4
f 3/5/5 4/6/6 6/7/7 5/8/8
f 5/9/9 6/10/10 11/11/11 12/12/12
f 7/13/13 8/14/14 2/15/15 1/16/16
f 10/17/17 11/18/18 6/19/19 4/20/20
f 12/21/21 9/22/22 3/23/23 5/24/24
f 13/25/25 14/26/26 10/2/27 9/1/28
f 14/27/29 15/28/30 11/18/31 10/17/32
f 12/12/33 11/11/34 15/29/35 16/30/36
f 16/31/37 13/32/38 9/22/39 12/21/40
f 41/33/41 42/34/42 38/35/43 39/36/44
f 42/37/45 43/38/46 37/39/47 38/40/48
f 40/41/49 37/42/50 43/43/51 44/44/52
f 44/45/53 41/46/54 39/47/55 40/48/56
f 21/49/57 22/50/58 18/51/59 17/52/60
f 22/53/61 23/54/62 19/55/63 18/56/64
f 20/57/65 19/58/66 23/59/67 24/60/68
f 24/61/69 21/62/70 17/63/71 20/64/72
f 25/65/73 26/66/74 22/50/75 21/49/76
f 26/67/77 27/68/78 23/54/79 22/53/80
f 24/60/81 23/59/82 27/69/83 28/70/84
f 28/71/85 25/72/86 21/62/87 24/61/88
f 49/73/89 50/74/90 46/75/91 47/76/92
f 50/77/93 51/78/94 45/79/95 46/80/96
f 48/81/97 45/82/98 51/83/99 52/84/100
f 52/85/101 49/86/102 47/87/103 48/88/104
f 33/89/105 34/90/106 54/91/107 55/92/108
f 34/93/109 35/94/110 53/95/111 54/96/112
f 56/97/113 53/98/114 35/99/115 36/100/116
f 36/101/117 33/102/118 55/103/119 56/104/120
f 57/105/121 58/106/122 34/90/123 33/89/124
f 58/107/125 59/108/126 35/94/127 34/93/128
f 36/100/129 35/99/130 59/109/131 60/110/132
f 60/111/133 57/112/134 33/102/135 36/101/136
f 38/40/137 37/39/138 15/28/139 14/27/140
f 39/36/141 38/35/142 14/26/143 13/25/144
f 40/48/145 39/47/146 13/32/147 16/31/148
f 16/30/149 15/29/150 37/42/151 40/41/152
f 61/113/153 62/114/154 66/115/155 67/116/156
f 62/117/157 63/118/158 65/119/159 66/120/160
f 68/121/161 65/122/162 63/123/163 64/124/164
f 64/125/165 61/126/166 67/127/167 68/128/168
f 46/80/169 45/79/170 27/68/171 26/67/172
f 47/76/173 46/75/174 26/66/175 25/65/176
f 48/88/177 47/87/178 25/72/179 28/71/180
f 28/70/181 27/69/182 45/82/183 48/81/184
f 29/129/185 30/130/186 50/74/187 49/73/188
f 30/131/189 31/132/190 51/78/191 50/77/192
f 52/84/193 51/83/194 31/133/195 32/134/196
f 32/135/197 29/136/198 49/86/199 52/85/200
f 54/96/201 53/95/202 31/132/203 30/131/204
f 55/92/205 54/91/206 30/130/207 29/129/208
f 56/104/209 55/103/210 29/136/211 32/135/212
f 32/134/213 31/133/214 53/98/215 56/97/216
f 1/137/217 2/138/218 58/106/219 57/105/220
f 2/139/221 8/140/222 59/108/223 58/107/224
f 60/110/225 59/109/226 8/141/227 7/142/228
f 7/143/229 1/144/230 57/112/231 60/111/232
f 17/52/233 18/51/234 62/114/235 61/113/236
f 18/56/237 19/55/238 63/118/239 62/117/240
f 64/124/241 63/123/242 19/58/243 20/57/244
f 20/64/245 17/63/246 61/126/247 64/125/248
f 66/120/249 65/119/250 43/38/251 42/37/252
f 67/116/253 66/115/254 42/34/255 41/33/256
f 68/128/257 67/127/258 41/46/259 44/45/260
f 44/44/261 43/43/262 65/122/263 68/121/264
