# This file uses centimeters as units for non-parametric coordinates.

mtllib sheriff pointy roof.mtl
g default
v -20.062277 6.867935 -4.584118
v -20.270636 7.112477 -4.584118
v -16.024057 10.709670 -4.584118
v -20.270636 7.112477 -10.910450
v -16.024057 10.709670 -10.910450
v -20.062277 6.867935 -10.910450
v -16.024057 10.303865 -4.584118
v -16.024057 10.303865 -10.910450
v -16.024056 10.680716 -10.910450
v -16.024056 10.680716 -4.584118
v -16.024056 10.376364 -4.584118
v -16.024056 10.376364 -10.910450
v -11.985836 6.867935 -4.584118
v -11.777478 7.112477 -4.584118
v -11.777478 7.112477 -10.910450
v -11.985836 6.867935 -10.910450
vt 0.781848 0.032459
vt 0.785685 0.368275
vt 0.743175 0.369192
vt 0.739338 0.033376
vt 0.502521 0.003528
vt 0.541952 0.003528
vt 0.541952 0.360908
vt 0.502521 0.360908
vt 0.000000 0.643458
vt 0.331763 0.643458
vt 0.331763 1.000000
vt 0.000000 1.000000
vt 0.105179 0.357788
vt 0.105179 0.000000
vt 0.461322 0.000000
vt 0.461322 0.357788
vt 0.365204 0.983521
vt 0.365204 0.642850
vt 0.721554 0.642850
vt 0.721554 0.983521
vt 0.055511 0.620835
vt 0.602638 0.620580
vt 0.607490 0.624466
vt 0.627858 0.640779
vt 0.629796 0.642331
vt 0.055511 0.643458
vt 0.689880 0.251990
vt 0.722611 0.255582
vt 0.644560 0.438775
vt 0.089679 0.437512
vt 0.091551 0.435773
vt 0.111231 0.417488
vt 0.115919 0.413132
vt 0.644560 0.413418
vt 0.000000 0.004026
vt 0.031625 0.000000
vt 0.569693 0.007913
vt 0.611189 0.007913
vt 0.611189 0.347946
vt 0.569693 0.347946
vn 0.000000 0.000000 1.000000
vn 0.000000 0.000000 1.000000
vn 0.000000 0.000000 1.000000
vn 0.000000 0.000000 1.000000
vn 0.000000 0.000000 1.000000
vn 0.000000 0.000000 1.000000
vn -0.646354 0.763038 0.000000
vn -0.646354 0.763038 0.000000
vn -0.646354 0.763038 0.000000
vn -0.646354 0.763038 0.000000
vn 0.000000 0.000000 -1.000000
vn 0.000000 0.000000 -1.000000
vn 0.000000 0.000000 -1.000000
vn 0.000000 0.000000 -1.000000
vn 0.000000 0.000000 -1.000000
vn 0.000000 0.000000 -1.000000
vn 0.648025 -0.761619 0.000000
vn 0.648025 -0.761619 0.000000
vn 0.648025 -0.761619 0.000000
vn 0.648025 -0.761619 0.000000
vn -0.761175 -0.648547 0.000000
vn -0.761175 -0.648547 0.000000
vn -0.761175 -0.648547 0.000000
vn -0.761175 -0.648547 0.000000
vn 0.000000 0.000000 1.000000
vn 0.000000 0.000000 1.000000
vn 0.646354 0.763038 0.000000
vn 0.646354 0.763038 0.000000
vn 0.646354 0.763038 0.000000
vn 0.646354 0.763038 0.000000
vn 0.000000 0.000000 -1.000000
vn 0.000000 0.000000 -1.000000
vn -0.648025 -0.761619 0.000000
vn -0.648025 -0.761619 0.000000
vn -0.648025 -0.761619 0.000000
vn -0.648025 -0.761619 0.000000
vn 0.761174 -0.648548 0.000000
vn 0.761174 -0.648548 0.000000
vn 0.761174 -0.648548 0.000000
vn 0.761174 -0.648548 0.000000
s 1
f 1/21/1 7/22/2 11/23/3 10/24/4 3/25/5 2/26/6
s off
f 2/13/7 3/14/8 5/15/9 4/16/10
s 2
f 4/29/11 5/30/12 9/31/13 12/32/14 8/33/15 6/34/16
s off
f 6/17/17 8/18/18 7/19/19 1/20/20
f 6/1/21 1/2/22 2/3/23 4/4/24
s 1
f 13/27/25 14/28/26 3/25/5 10/24/4 11/23/3 7/22/2
s off
f 14/5/27 15/6/28 5/7/29 3/8/30
s 2
f 15/35/31 16/36/32 8/33/15 12/32/14 9/31/13 5/30/12
s off
f 16/9/33 13/10/34 7/11/35 8/12/36
f 16/37/37 15/38/38 14/39/39 13/40/40
